<mxfile host="app.diagrams.net" agent="Mozilla/5.0 (Windows NT 10.0; Win64; x64) AppleWebKit/537.36 (KHTML, like Gecko) Chrome/135.0.0.0 Safari/537.36" version="26.2.14">
  <diagram name="Página-1" id="h7LUN1vNj84Fv_pHa3Pm">
    <mxGraphModel dx="801" dy="351" grid="1" gridSize="10" guides="1" tooltips="1" connect="1" arrows="1" fold="1" page="1" pageScale="1" pageWidth="827" pageHeight="1169" math="0" shadow="0">
      <root>
        <mxCell id="0" />
        <mxCell id="1" parent="0" />
        <mxCell id="UgrekTySW67cZ93FWNIJ-5" value="Platillo" style="swimlane;childLayout=stackLayout;horizontal=1;startSize=50;horizontalStack=0;rounded=1;fontSize=14;fontStyle=0;strokeWidth=2;resizeParent=0;resizeLast=1;shadow=0;dashed=0;align=center;arcSize=4;whiteSpace=wrap;html=1;" vertex="1" parent="1">
          <mxGeometry x="160" y="90" width="160" height="150" as="geometry" />
        </mxCell>
        <mxCell id="UgrekTySW67cZ93FWNIJ-6" value="ID_platillo&lt;div&gt;&lt;div&gt;Nombre&amp;nbsp; &amp;nbsp; &amp;nbsp; &amp;nbsp; &amp;nbsp;TEXT&lt;/div&gt;&lt;div&gt;Descripción&amp;nbsp; &amp;nbsp;TEXT&lt;/div&gt;&lt;div&gt;Precio&amp;nbsp; &amp;nbsp; &amp;nbsp; &amp;nbsp; &amp;nbsp; &amp;nbsp; DOUBLE&lt;/div&gt;&lt;div&gt;Cantidad&amp;nbsp; &amp;nbsp; &amp;nbsp; &amp;nbsp; INTEGER&lt;/div&gt;&lt;/div&gt;" style="align=left;strokeColor=none;fillColor=none;spacingLeft=4;spacingRight=4;fontSize=12;verticalAlign=top;resizable=0;rotatable=0;part=1;html=1;whiteSpace=wrap;" vertex="1" parent="UgrekTySW67cZ93FWNIJ-5">
          <mxGeometry y="50" width="160" height="100" as="geometry" />
        </mxCell>
        <mxCell id="UgrekTySW67cZ93FWNIJ-7" value="&lt;div&gt;ReporteDia&lt;/div&gt;" style="swimlane;childLayout=stackLayout;horizontal=1;startSize=50;horizontalStack=0;rounded=1;fontSize=14;fontStyle=0;strokeWidth=2;resizeParent=0;resizeLast=1;shadow=0;dashed=0;align=center;arcSize=4;whiteSpace=wrap;html=1;" vertex="1" parent="1">
          <mxGeometry x="400" y="80" width="160" height="170" as="geometry" />
        </mxCell>
        <mxCell id="UgrekTySW67cZ93FWNIJ-8" value="ID_Reporte&lt;div&gt;Fecha&amp;nbsp; &amp;nbsp; &amp;nbsp; &amp;nbsp; &amp;nbsp; &amp;nbsp; DATE&amp;nbsp;&lt;/div&gt;&lt;div&gt;Total&amp;nbsp; &amp;nbsp; &amp;nbsp; &amp;nbsp; &amp;nbsp; &amp;nbsp; &amp;nbsp; &amp;nbsp;DOUBLE&lt;/div&gt;&lt;div&gt;Platillo&amp;nbsp; &amp;nbsp; &amp;nbsp; &amp;nbsp; &amp;nbsp; &amp;nbsp; TEXT&lt;/div&gt;&lt;div&gt;Bebida&amp;nbsp; &amp;nbsp; &amp;nbsp; &amp;nbsp; &amp;nbsp; &amp;nbsp;TEXT&lt;/div&gt;&lt;div&gt;Postre&amp;nbsp; &amp;nbsp; &amp;nbsp; &amp;nbsp; &amp;nbsp; &amp;nbsp; TEXT&lt;/div&gt;&lt;div&gt;Cantidad&amp;nbsp; &amp;nbsp; &amp;nbsp; &amp;nbsp; INTEGER&lt;/div&gt;" style="align=left;strokeColor=none;fillColor=none;spacingLeft=4;spacingRight=4;fontSize=12;verticalAlign=top;resizable=0;rotatable=0;part=1;html=1;whiteSpace=wrap;" vertex="1" parent="UgrekTySW67cZ93FWNIJ-7">
          <mxGeometry y="50" width="160" height="120" as="geometry" />
        </mxCell>
      </root>
    </mxGraphModel>
  </diagram>
</mxfile>
